<?xml version="1.0" standalone="no"?>
<!DOCTYPE svg PUBLIC "-//W3C//DTD SVG 20010904//EN"
 "http://www.w3.org/TR/2001/REC-SVG-20010904/DTD/svg10.dtd">
<svg version="1.0" xmlns="http://www.w3.org/2000/svg"
 width="559.000000pt" height="897.000000pt" viewBox="0 0 559.000000 897.000000"
 preserveAspectRatio="xMidYMid meet">
<metadata>
Created by potrace 1.16, written by Peter Selinger 2001-2019
</metadata>
<g transform="translate(0.000000,897.000000) scale(0.100000,-0.100000)"
fill="#000000" stroke="none">
<path d="M620 3841 l0 -3831 735 0 735 0 0 1620 0 1620 68 0 67 -1 850 -1605
c468 -884 855 -1612 860 -1620 8 -12 131 -14 802 -12 l791 3 -900 1690 c-495
930 -902 1695 -904 1700 -2 6 35 25 83 44 113 43 364 172 473 243 350 226 620
551 763 918 119 303 168 696 137 1086 -53 650 -297 1131 -745 1464 -125 93
-208 143 -370 221 -287 138 -572 214 -990 266 -111 14 -302 17 -1292 20
l-1163 4 0 -3830z m2410 2375 c406 -72 632 -248 706 -551 26 -104 23 -334 -4
-436 -83 -310 -291 -471 -687 -535 -75 -12 -205 -17 -527 -21 l-428 -6 0 788
0 787 423 -5 c335 -3 441 -8 517 -21z"/>
</g>
</svg>
