<?xml version="1.0" standalone="no"?>
<!DOCTYPE svg PUBLIC "-//W3C//DTD SVG 20010904//EN"
 "http://www.w3.org/TR/2001/REC-SVG-20010904/DTD/svg10.dtd">
<svg version="1.0" xmlns="http://www.w3.org/2000/svg"
 width="559.000000pt" height="897.000000pt" viewBox="0 0 559.000000 897.000000"
 preserveAspectRatio="xMidYMid meet">
<metadata>
Created by potrace 1.16, written by Peter Selinger 2001-2019
</metadata>
<g transform="translate(0.000000,897.000000) scale(0.100000,-0.100000)"
fill="#000000" stroke="none">
<path d="M2940 8053 c-159 -10 -420 -67 -589 -129 -201 -75 -437 -206 -606
-338 -92 -72 -250 -231 -326 -329 -165 -213 -275 -432 -332 -662 -48 -192 -52
-231 -52 -465 0 -194 3 -241 23 -338 102 -507 424 -980 1072 -1576 281 -259
894 -792 1270 -1106 163 -136 426 -398 480 -479 58 -86 115 -203 135 -276 22
-82 31 -287 15 -356 -66 -285 -352 -517 -701 -569 -134 -20 -341 -9 -454 24
-190 56 -345 148 -503 300 -156 151 -304 348 -429 573 -26 46 -50 83 -55 83
-7 0 -1207 -716 -1218 -726 -16 -17 230 -426 366 -607 446 -595 954 -914 1639
-1029 113 -19 170 -22 440 -22 278 -1 325 1 454 22 441 71 789 214 1105 455
367 279 644 716 745 1173 65 294 71 672 15 959 -90 460 -338 881 -770 1306
-251 246 -437 406 -1163 999 -675 551 -889 756 -981 943 -106 216 -72 440 89
597 118 114 250 166 451 176 361 19 674 -144 1091 -568 l145 -148 527 447 526
446 -71 81 c-200 227 -507 510 -728 673 -491 361 -983 504 -1610 466z"/>
</g>
</svg>
